<svg width="16" height="16" viewBox="0 0 16 16" fill="none" xmlns="http://www.w3.org/2000/svg">
<path d="M15.126 4.95547C15.0216 4.85047 14.8975 4.76721 14.7607 4.71048C14.624 4.65376 14.4774 4.62471 14.3293 4.625H12.0793V4.0625C12.0793 3.01821 11.6645 2.01669 10.9261 1.27827C10.1877 0.539843 9.18614 0.125 8.14185 0.125C7.09756 0.125 6.09604 0.539843 5.35761 1.27827C4.61919 2.01669 4.20435 3.01821 4.20435 4.0625V4.625H1.95435C1.65598 4.625 1.36983 4.74353 1.15885 4.9545C0.947872 5.16548 0.829346 5.45163 0.829346 5.75V13.3438C0.829346 14.7148 1.9895 15.875 3.3606 15.875H12.9231C13.5863 15.8752 14.2233 15.6159 14.6978 15.1525C14.9366 14.9247 15.1267 14.6509 15.2568 14.3476C15.3868 14.0442 15.454 13.7177 15.4543 13.3877V5.75C15.4548 5.60244 15.426 5.45626 15.3696 5.31989C15.3133 5.18352 15.2305 5.05966 15.126 4.95547ZM10.3918 10.8125H8.70435V12.5C8.70435 12.6492 8.64508 12.7923 8.53959 12.8977C8.4341 13.0032 8.29103 13.0625 8.14185 13.0625C7.99266 13.0625 7.84959 13.0032 7.7441 12.8977C7.63861 12.7923 7.57935 12.6492 7.57935 12.5V10.8125H5.89185C5.74266 10.8125 5.59959 10.7532 5.4941 10.6477C5.38861 10.5423 5.32935 10.3992 5.32935 10.25C5.32935 10.1008 5.38861 9.95774 5.4941 9.85225C5.59959 9.74676 5.74266 9.6875 5.89185 9.6875H7.57935V8C7.57935 7.85082 7.63861 7.70774 7.7441 7.60225C7.84959 7.49676 7.99266 7.4375 8.14185 7.4375C8.29103 7.4375 8.4341 7.49676 8.53959 7.60225C8.64508 7.70774 8.70435 7.85082 8.70435 8V9.6875H10.3918C10.541 9.6875 10.6841 9.74676 10.7896 9.85225C10.8951 9.95774 10.9543 10.1008 10.9543 10.25C10.9543 10.3992 10.8951 10.5423 10.7896 10.6477C10.6841 10.7532 10.541 10.8125 10.3918 10.8125ZM10.9543 4.625H5.32935V4.0625C5.32935 3.31658 5.62566 2.60121 6.15311 2.07376C6.68055 1.54632 7.39592 1.25 8.14185 1.25C8.88777 1.25 9.60314 1.54632 10.1306 2.07376C10.658 2.60121 10.9543 3.31658 10.9543 4.0625V4.625Z" fill="white"/>
</svg>
