<svg width="20" height="21" viewBox="0 0 20 21" fill="currentcolor" xmlns="http://www.w3.org/2000/svg">
<path d="M0.666597 19.2805H1.1666C1.21081 19.2805 1.2532 19.2617 1.28446 19.2282C1.31571 19.1947 1.33327 19.1493 1.33327 19.102V11.4908C1.33289 11.4624 1.33885 11.4343 1.35064 11.4088C1.36243 11.3834 1.37972 11.3613 1.40107 11.3445C1.42243 11.3276 1.44722 11.3165 1.4734 11.312C1.49959 11.3074 1.5264 11.3097 1.55161 11.3185C1.93396 11.4472 2.33101 11.519 2.73162 11.5319C2.78079 11.5319 2.82746 11.5341 2.87329 11.5341C3.64383 11.5361 4.40198 11.3264 5.0754 10.9252C5.12638 10.8948 5.18374 10.8789 5.24207 10.8789C5.3004 10.8789 5.35776 10.8948 5.40874 10.9252C6.08201 11.3264 6.84002 11.5361 7.61043 11.5341C8.37652 11.5353 9.12975 11.3231 9.79629 10.9185C9.84769 10.8873 9.90576 10.8709 9.96483 10.8709C10.0239 10.8709 10.082 10.8873 10.1334 10.9185C10.8099 11.3246 11.5729 11.5368 12.3484 11.5346C13.1196 11.5351 13.8776 11.3196 14.5472 10.9096C14.599 10.878 14.6576 10.8614 14.7172 10.8614C14.7768 10.8614 14.8354 10.878 14.8872 10.9096C15.5567 11.3196 16.3147 11.5351 17.086 11.5346C17.1314 11.5346 17.1772 11.5346 17.2264 11.5323H17.2289C17.6436 11.519 18.0543 11.4425 18.4489 11.3051C18.4739 11.2964 18.5004 11.2942 18.5263 11.2987C18.5523 11.3031 18.5769 11.314 18.5981 11.3305C18.6194 11.3471 18.6366 11.3688 18.6486 11.3938C18.6605 11.4189 18.6668 11.4466 18.6668 11.4747V19.102C18.6668 19.1493 18.6844 19.1947 18.7156 19.2282C18.7469 19.2617 18.7893 19.2805 18.8335 19.2805H19.3126C19.6727 19.2805 19.9835 19.577 19.9993 19.9627C20.0034 20.0591 19.9892 20.1553 19.9575 20.2457C19.9259 20.336 19.8775 20.4186 19.8153 20.4883C19.7531 20.5581 19.6783 20.6136 19.5955 20.6516C19.5127 20.6895 19.4235 20.7091 19.3335 20.7091H0.687431C0.327427 20.7091 0.0165901 20.4127 0.00075531 20.027C-0.00329781 19.9306 0.0109215 19.8343 0.0425529 19.7439C0.0741863 19.6536 0.122574 19.5711 0.184801 19.5013C0.247026 19.4315 0.3218 19.376 0.404606 19.3381C0.487413 19.3001 0.576536 19.2806 0.666597 19.2805ZM11.3334 16.2448C11.3334 16.2922 11.3509 16.3376 11.3822 16.3711C11.4135 16.4046 11.4559 16.4234 11.5001 16.4234H15.1668C15.211 16.4234 15.2534 16.4046 15.2846 16.3711C15.3159 16.3376 15.3334 16.2922 15.3334 16.2448V13.3877C15.3334 13.2456 15.2808 13.1093 15.187 13.0089C15.0932 12.9084 14.966 12.852 14.8334 12.852H11.8334C11.7008 12.852 11.5736 12.9084 11.4798 13.0089C11.3861 13.1093 11.3334 13.2456 11.3334 13.3877V16.2448ZM4.83331 19.2805H7.83335C7.87755 19.2805 7.91994 19.2617 7.9512 19.2282C7.98246 19.1947 8.00002 19.1493 8.00002 19.102V13.3877C8.00002 13.2456 7.94734 13.1093 7.85357 13.0089C7.7598 12.9084 7.63262 12.852 7.50001 12.852H5.16665C5.03404 12.852 4.90686 12.9084 4.81309 13.0089C4.71932 13.1093 4.66664 13.2456 4.66664 13.3877V19.102C4.66664 19.1493 4.6842 19.1947 4.71546 19.2282C4.74672 19.2617 4.78911 19.2805 4.83331 19.2805ZM0.142841 6.88232L1.9312 2.48545C2.39953 1.40643 3.46913 0.709106 4.65623 0.709106H15.3459C16.533 0.709106 17.6026 1.40643 18.071 2.48545L19.8593 6.88232C20.2343 7.74884 19.7389 8.63857 19.7385 8.63902L19.7268 8.65911C19.7064 8.69393 19.6702 8.74839 19.6481 8.78321C19.646 8.78589 19.6443 8.78902 19.6422 8.79214L19.4339 9.06223C19.4261 9.07243 19.4178 9.08212 19.4089 9.09125L19.2006 9.30687L19.1831 9.32295C19.0607 9.4353 18.9298 9.53654 18.7918 9.62562V9.62786C18.3383 9.92217 17.8217 10.0862 17.2918 10.1042H17.1889C16.3871 10.1058 15.6145 9.78181 15.0268 9.1975L15.013 9.18366C14.9516 9.12169 14.8705 9.08718 14.7861 9.08718C14.7018 9.08718 14.6206 9.12169 14.5593 9.18366L14.5455 9.1975C13.9515 9.78082 13.175 10.1044 12.3692 10.1044C11.5635 10.1044 10.787 9.78082 10.193 9.1975C10.1313 9.13638 10.0505 9.10242 9.9665 9.10242C9.88253 9.10242 9.80165 9.13638 9.74004 9.1975C9.14779 9.77898 8.37413 10.1024 7.57083 10.1043C6.76752 10.1062 5.99254 9.78644 5.3979 9.20777C5.3372 9.14752 5.25751 9.11406 5.17478 9.11406C5.09204 9.11406 5.01235 9.14752 4.95165 9.20777C4.35638 9.78997 3.57801 10.1101 2.77204 10.1042H2.66829C2.15168 10.0835 1.64902 9.91889 1.20994 9.62652C1.17035 9.60107 1.13244 9.57429 1.0941 9.5475C0.79796 9.3336 0.540226 9.06427 0.33326 8.75241L0.260759 8.635C0.253538 8.62309 0.24687 8.61059 0.240759 8.5975C0.171591 8.44661 -0.199247 7.67071 0.142841 6.88232Z" fill="currentcolor"/>
</svg>
