<?xml version="1.0" encoding="utf-8"?>
<!-- Generator: Adobe Illustrator 26.0.2, SVG Export Plug-In . SVG Version: 6.00 Build 0)  -->
<svg version="1.1" id="Layer_1" xmlns="http://www.w3.org/2000/svg" xmlns:xlink="http://www.w3.org/1999/xlink" x="0px" y="0px"
	 viewBox="0 0 368.5 368.5" style="enable-background:new 0 0 368.5 368.5;" xml:space="preserve">
<style type="text/css">
	.st0{fill:#BA8D59;}
</style>
<g id="Layer_2_00000161603188778907204790000015508006565651276935_">
	<g id="Layer_1-2">
		<path class="st0" d="M157,90.3l-17.2-8L123,90.1l-0.4,0.2c-3.5,1.9-6.9,4-10,6.4c-5,4.1-7.4,8.5-7.4,13.6l0,0v23.9l12.2,4.1v-27.9
			c0-0.5,0-1.8,2.9-4.2c2.6-1.9,5.3-3.7,8.1-5.2l11.4-5.3l11.5,5.3c5.6,3.2,11,6.5,11,9.3v36.3c0,3.8-1.1,6.6-3.4,8.7
			c-2,1.7-4.4,3-7,3.6c-3,0.8-6.2,1.3-9.3,1.3c-1.6,0-2.1,0-3.4,0v12c0.5,0,1.9,0,3.1,0.1c15.6,1.1,19.9,9.4,19.9,14.5v71.3
			c0,2.9-5.4,6.2-11,9.3l-11.5,5.3l-11.4-5.3c-5.6-3.2-11.1-6.5-11.1-9.4v-50.4l-12.2-4.1V258c0,10.3,9.7,15.7,17.5,20.1l17.2,8
			l16.8-7.8l0.4-0.2c7.4-4.1,17.4-9.8,17.4-20v-71.3c-0.3-8-4.3-15.4-10.8-19.9c1.2-0.8,2.4-1.7,3.5-2.6c4.8-4.4,7.4-10.7,7.4-17.2
			l0,0v-36.8C174.4,100.1,164.3,94.5,157,90.3z"/>
		<path class="st0" d="M193.1,20c-1.3-0.1-2.6-0.4-3.7-0.9c-2.4-1.1-4.2-3.2-5-5.6c-0.4-1.3-0.6-2.6-0.5-4s0.4-2.7,1-3.9
			c0.5-1.2,1.3-2.2,2.3-3.1c1-0.8,2.1-1.5,3.3-1.9c2.2-0.8,4.6-0.7,6.8,0.1c1,0.4,1.9,0.9,2.7,1.6c1.2,1,2.2,2.2,2.8,3.7
			s0.9,3.1,0.8,4.7c-0.1,1.3-0.4,2.7-0.9,3.9c-1.1,2.3-3.2,4.1-5.6,5C195.7,19.9,194.4,20.1,193.1,20z M199.6,10.3
			c0.2-2.2-0.2-4.5-1.3-6.4c-1.3-2.5-4.3-3.4-6.7-2.1c-0.8,0.4-1.4,1-1.9,1.7c-1.3,1.8-2,4-2,6.3c-0.2,2.2,0.2,4.5,1.3,6.4
			c1.3,2.5,4.3,3.4,6.7,2.1c0.8-0.4,1.4-1,1.9-1.7C198.9,14.8,199.6,12.6,199.6,10.3L199.6,10.3z"/>
		<path class="st0" d="M219.2,2.1l-1.5,7.8l-1.6-0.3l1.5-7.8L219.2,2.1z"/>
		<path class="st0" d="M225.7,24.4l15.6-13.7L232,7.8l0.4-1.4l13.9,4.3l-15.5,13.7l10.1,3.1l-0.4,1.3L225.7,24.4z"/>
		<path class="st0" d="M251.2,33.2l8.7-17l3.6,1.8l-1.2,14.1l10.6-9.3l3.3,1.7l-8.7,17.1l-3.1-1.6l7-13.7l-13.1,11.4l1.3-17.4
			l-7,13.7L251.2,33.2z"/>
		<path class="st0" d="M281.7,51.2l-2.9-2L290,33.5l2.9,2L281.7,51.2z"/>
		<path class="st0" d="M302.1,66.6l-1,1.1l-8.7-8l13-14.1L308,48l-12,13L302.1,66.6z"/>
		<path class="st0" d="M317.1,83.7l-1.1,0.9l-7.5-9.1l14.7-12.2l2.3,2.7l-13.7,11.3L317.1,83.7z"/>
		<path class="st0" d="M324,96.6l-1.9-3l16.1-10.3l1.9,3L324,96.6z"/>
		<path class="st0" d="M332.2,111.3l8.4-4l6.1-10.1l1.8,3.8l-5,7.8l9.3,1.3l0.9,1.9l-11.2-1.7l-8.8,4.2L332.2,111.3z"/>
		<path class="st0" d="M342.1,136.4l-2-6.5l18.3-5.6l1.7,5.4c0.3,1,0.5,1.9,0.7,2.9c0.1,0.6,0.1,1.3,0,1.9c-0.2,0.8-0.5,1.6-1.1,2.2
			c-0.6,0.6-1.3,1.1-2.1,1.4c-0.9,0.3-1.9,0.3-2.8,0c-0.9-0.4-1.7-1.1-2.1-1.9c0.1,1.2-0.2,2.4-0.9,3.4c-0.7,0.9-1.7,1.6-2.8,1.9
			c-1.4,0.5-3,0.4-4.2-0.5C343.5,139.8,342.5,138.2,342.1,136.4z M350.2,130.5l-7.8,2.5l0.7,2.2c0.3,1.2,0.9,2.2,1.8,2.9
			c0.9,0.5,2,0.6,3,0.2c1.2-0.3,2.3-1.1,2.9-2.2c0.5-1.2,0.5-2.6,0-3.9L350.2,130.5z M358.3,128l-7,2.1l0.5,1.7
			c0.2,1.1,0.9,2.1,1.8,2.9c0.9,0.5,2,0.6,3,0.1c1-0.2,1.9-0.9,2.3-1.9c0.3-1.2,0.3-2.4-0.2-3.6L358.3,128z"/>
		<path class="st0" d="M346.4,152.6l20.5,5l-18.1,10.9l-0.5-3.7l4.8-2.7l-1-6.5l-5.3-1.2L346.4,152.6z M353.2,155.8l0.8,5.5l6.5-3.8
			L353.2,155.8z"/>
		<path class="st0" d="M349.4,179.2l19.1,0.3v3.2l-13.4,9.7l13.2,0.2v1.7l-19.1-0.3v-1.7l15.4-11.2l-15.3-0.2L349.4,179.2z"/>
		<path class="st0" d="M356.5,212.8l8.2,8.6l-0.4,2.2l-7-7.3l-11.9,4.6l0.7-4.1L356.5,212.8z M347.7,207.4l18.9,3.3l-0.6,3.5
			l-18.9-3.3L347.7,207.4z"/>
		<path class="st0" d="M346,248.8l-6.1-2.1c-0.5-1.3-0.8-2.6-1-4c-0.1-1.3,0.1-2.6,0.5-3.8c0.8-2.5,2.5-4.5,4.9-5.6
			c5.1-2,10.9,0,13.6,4.7c1.2,2.2,1.4,4.8,0.5,7.2c-0.4,1.4-1.2,2.6-2.3,3.6c-1.1,0.9-2.4,1.6-3.8,1.8l-0.5-1.4
			c1.2-0.1,2.3-0.5,3.2-1.2c2.3-1.9,2.8-5.2,1-7.7c-1.4-1.8-3.4-3.1-5.6-3.7c-2-0.8-4.2-1-6.3-0.5c-1.7,0.5-3,1.8-3.5,3.5
			c-0.2,0.7-0.4,1.4-0.4,2.1c0,0.7,0.1,1.3,0.4,1.9l6.2,2.1L346,248.8z"/>
		<path class="st0" d="M333.6,254.9l13.5,16.1l-21.1-2l1.8-3.3l5.4,0.6l3.1-5.8l-3.6-4.1L333.6,254.9z M337.2,261.5l-2.6,4.9
			l7.5,0.8L337.2,261.5z"/>
		<path class="st0" d="M310.9,290.2l1.8,9.4c0.1,0.5,0.2,1,0.4,1.5c0.1,0.3,0.3,0.6,0.5,0.8c0.3,0.3,0.7,0.4,1.1,0.2
			c0.6-0.3,1.1-0.7,1.5-1.3l2.2-2.5l1.6,8.2l4.2-4.7l1.1,1l-7.2,8l-1.6-8.5l-0.4,0.5l-0.5,0.6c-0.6,0.7-1.4,1.3-2.3,1.5
			c-0.8,0.1-1.5-0.1-2.1-0.6c-0.4-0.4-0.7-0.8-0.9-1.3c-0.3-0.6-0.5-1.2-0.6-1.8l-1.5-8L310.9,290.2z"/>
		<path class="st0" d="M291.1,309.5c1.5-1.3,3.5-1.8,5.4-1.3c2.3,0.6,4.3,1.9,5.7,3.7c1.9,2.1,3.1,4.7,3.4,7.6
			c0.2,2.3-0.7,4.7-2.5,6.2c-1.5,1.3-3.5,1.8-5.4,1.3c-2.3-0.6-4.3-1.9-5.7-3.7c-1.9-2.1-3.1-4.7-3.4-7.6
			C288.3,313.3,289.3,311,291.1,309.5z M291.5,310.7c-1,0.8-1.2,2.1-0.7,3.8c0.7,2.2,1.9,4.1,3.4,5.8c1.3,1.7,2.9,3,4.8,4
			c1.5,0.7,2.7,0.7,3.6-0.1s1.2-2.1,0.8-3.8c-0.7-2.1-1.8-4-3.3-5.7c-1.3-1.7-3-3.2-4.9-4.2C293.6,309.9,292.4,309.9,291.5,310.7z"
			/>
		<path class="st0" d="M257.3,332.2l4,8.4l10.1,6.1l-3.8,1.8l-7.8-5l-1.3,9.3l-1.9,0.9l1.7-11.2l-4.2-8.8L257.3,332.2z"/>
		<path class="st0" d="M235.2,341.2l3.3-1.1l6.1,18.1l-3.3,1.1L235.2,341.2z"/>
		<path class="st0" d="M210.7,348.8l-0.3-1.4L222,345l3.9,18.8l-3.5,0.7l-3.6-17.4L210.7,348.8z"/>
		<path class="st0" d="M200.6,343l-1.3,6.1c-0.1,0.7-0.3,1.4-0.7,2c-0.2,0.3-0.6,0.6-1,0.6s-0.7-0.1-1-0.3c-0.3-0.2-0.5-0.6-0.5-0.9
			s0-0.6,0.1-1c0.2-0.4,0.4-0.9,0.7-1.2L200.6,343z M198.1,355.9c0.9-0.1,1.8,0.6,1.8,1.6c0,0.4-0.1,0.9-0.4,1.2
			c-0.3,0.3-0.7,0.6-1.2,0.6c-0.4,0-0.9-0.1-1.2-0.4s-0.6-0.7-0.6-1.1c0-0.5,0.1-0.9,0.4-1.2C197.2,356.2,197.6,356,198.1,355.9
			L198.1,355.9z"/>
		<path class="st0" d="M174.2,348.5c1.3,0.1,2.6,0.4,3.7,1c1.1,0.6,2.2,1.4,3,2.3c0.9,1,1.5,2.1,1.9,3.4c0.8,2.6,0.6,5.4-0.5,7.9
			c-0.5,1.2-1.3,2.2-2.3,3.1c-1,0.8-2.1,1.5-3.3,1.9s-2.5,0.6-3.8,0.5c-1-0.1-2-0.3-3-0.7c-1-0.4-1.9-0.9-2.7-1.6
			c-1.2-1-2.1-2.2-2.7-3.7c-0.6-1.5-0.9-3.1-0.7-4.7c0.1-1.3,0.4-2.7,1-3.9c0.6-1.2,1.4-2.2,2.3-3.1
			C169.1,349.2,171.6,348.3,174.2,348.5L174.2,348.5z M167.6,358.1c-0.2,2.2,0.2,4.5,1.3,6.5c1.2,2.5,4.3,3.4,6.7,2.2
			c0.8-0.4,1.4-1,1.9-1.7c1.3-1.8,2-4,2.1-6.2c0.2-2.2-0.2-4.5-1.3-6.4c-1.3-2.5-4.3-3.4-6.7-2.2c-0.8,0.4-1.4,0.9-1.9,1.6
			C168.4,353.7,167.6,355.9,167.6,358.1L167.6,358.1z"/>
		<path class="st0" d="M147.9,366.2l1.5-7.8l1.6,0.3l-1.5,7.8L147.9,366.2z"/>
		<path class="st0" d="M141.6,343.8l-15.7,13.6l9.3,3l-0.4,1.4l-13.9-4.4l15.7-13.6l-10.1-3.2l0.4-1.4L141.6,343.8z"/>
		<path class="st0" d="M116.2,334.8l-8.8,17l-3.6-1.8l1.3-14.1l-10.7,9.2l-3.3-1.7l8.8-17l3.1,1.6l-7.1,13.7l13.1-11.3l-1.4,17.4
			l7.1-13.6L116.2,334.8z"/>
		<path class="st0" d="M85.8,316.7l2.8,2.1l-11.2,15.5l-2.8-2.1L85.8,316.7z"/>
		<path class="st0" d="M65.5,301.1l1-1l8.7,8.1l-13,14l-2.6-2.4l12.1-13L65.5,301.1z"/>
		<path class="st0" d="M50.7,283.9l1.1-0.9l7.5,9.2l-14.8,12.1l-2.2-2.8L56,290.3L50.7,283.9z"/>
		<path class="st0" d="M43.9,271l1.9,3l-16.2,10.2l-1.9-3L43.9,271z"/>
		<path class="st0" d="M35.8,256.2l-8.4,4l-6.1,10.1l-1.8-3.8l5-7.8l-9.3-1.3l-0.9-1.9l11.2,1.7l8.8-4.2L35.8,256.2z"/>
		<path class="st0" d="M26,231l2,6.5L9.6,243L8,237.6c-0.3-1-0.5-1.9-0.7-2.9c-0.1-0.6-0.1-1.3,0-1.9c0.2-0.8,0.6-1.6,1.1-2.2
			c0.6-0.6,1.3-1.1,2.2-1.3c0.9-0.3,1.9-0.3,2.8,0.1c0.9,0.4,1.6,1.1,2.1,1.9c-0.1-1.2,0.2-2.4,0.9-3.4c0.7-0.9,1.7-1.6,2.8-1.9
			c1.4-0.5,3-0.3,4.2,0.5C24.7,227.6,25.6,229.2,26,231z M9.8,239.2l7-2.1l-0.5-1.7c-0.2-1.1-0.9-2.2-1.8-2.9c-0.9-0.5-2-0.6-3-0.2
			c-1,0.2-1.9,0.9-2.3,1.9c-0.3,1.2-0.3,2.4,0.1,3.6L9.8,239.2z M17.9,236.8l7.9-2.4l-0.6-2.2c-0.2-1.2-0.9-2.2-1.8-2.9
			c-0.9-0.5-2-0.6-3-0.2c-1.2,0.3-2.3,1-2.9,2.1c-0.5,1.2-0.5,2.6,0,3.9L17.9,236.8z"/>
		<path class="st0" d="M21.9,214.8l-20.4-5.1l18.2-10.8l0.5,3.8l-4.8,2.7l0.9,6.5l5.3,1.3L21.9,214.8z M15.1,211.5l-0.8-5.5
			l-6.5,3.7L15.1,211.5z"/>
		<path class="st0" d="M19.1,188.1L0,187.7l0.1-3.2l13.4-9.6l-13.2-0.3v-1.7l19.1,0.4v1.7L3.9,186.1l15.2,0.4V188.1z"/>
		<path class="st0" d="M21,160l-18.8-3.5l0.6-3.5l18.8,3.5L21,160z M12.2,154.6l-8.1-8.7l0.4-2.1l7,7.4l12-4.5l-0.8,4.1L12.2,154.6z
			"/>
		<path class="st0" d="M23,118.6l6.1,2.2c0.5,1.3,0.8,2.6,0.9,4c0.1,1.3-0.1,2.6-0.6,3.8c-0.8,2.5-2.6,4.5-4.9,5.6
			c-2.5,1.1-5.3,1.1-7.7,0.1c-2.5-0.8-4.6-2.6-5.8-4.9c-1.2-2.2-1.4-4.8-0.5-7.2c0.4-1.4,1.2-2.6,2.3-3.6c1.1-0.9,2.4-1.5,3.8-1.8
			l0.4,1.3c-1.2,0.1-2.3,0.5-3.2,1.2c-2.4,1.9-2.8,5.3-1.1,7.7c1.4,1.8,3.4,3.1,5.6,3.8c2,0.8,4.2,1,6.3,0.5c1.7-0.5,3-1.8,3.6-3.5
			c0.2-0.7,0.4-1.4,0.4-2.1s-0.1-1.3-0.4-1.9l-6.1-2.2L23,118.6z"/>
		<path class="st0" d="M35.5,112.6L22.1,96.4l21.1,2.1l-1.8,3.3l-5.4-0.7l-3.1,5.9l3.5,4.2L35.5,112.6z M31.9,105.9l2.7-4.9
			l-7.5-0.9L31.9,105.9z"/>
		<path class="st0" d="M58.4,77.4L56.7,68c-0.1-0.5-0.2-1-0.4-1.4c-0.1-0.3-0.3-0.6-0.5-0.8c-0.3-0.3-0.7-0.4-1.1-0.2
			c-0.6,0.3-1.1,0.7-1.5,1.2L51,69.2L49.4,61l-4.2,4.7l-1.1-1l7.2-8l1.6,8.6l0.4-0.5l0.5-0.6c0.6-0.7,1.4-1.3,2.3-1.5
			c0.8-0.1,1.5,0.1,2.1,0.7c0.4,0.4,0.7,0.8,0.9,1.3c0.3,0.6,0.5,1.2,0.6,1.8l1.5,8L58.4,77.4z"/>
		<path class="st0" d="M112.3,35.8l-4-8.4l-10.1-6.1l3.8-1.8l7.8,5l1.3-9.3l1.9-0.9l-1.7,11.2l4.2,8.8L112.3,35.8z"/>
		<path class="st0" d="M134.6,27l-3.4,1.1l-6-18.2l3.4-1.1L134.6,27z"/>
		<path class="st0" d="M159.1,19.6l0.3,1.4l-11.6,2.3L144,4.6l3.5-0.7l3.5,17.4L159.1,19.6z"/>
	</g>
</g>
<path class="st0" d="M251.1,86.9v194.8c-2.1,1-6.6,3.8-6.6,3.8s-3.6-2.5-6.3-4.9V100.7l-33.9,22.5l-4-13.4l33.1-23l8.9-3.8l0,0
	C242.3,83.1,251,86.8,251.1,86.9z"/>
<path class="st0" d="M74.7,60.9l-8.5-13.4l-2.8,7.8L61.1,53l1.7-7.7l5.1-4.9l10.5,16.7L74.7,60.9z"/>
</svg>
